<svg width="37" height="37" viewBox="0 0 37 37" fill="none" xmlns="http://www.w3.org/2000/svg">
<path d="M19.8861 29.5649C19.7792 29.4581 19.6944 29.3312 19.6365 29.1916C19.5786 29.052 19.5488 28.9024 19.5488 28.7512C19.5488 28.6001 19.5786 28.4504 19.6365 28.3108C19.6944 28.1712 19.7792 28.0444 19.8861 27.9376L28.2743 19.5508H5.74914C5.44413 19.5508 5.15161 19.4297 4.93593 19.214C4.72026 18.9983 4.59909 18.7058 4.59909 18.4008C4.59909 18.0958 4.72026 17.8033 4.93593 17.5876C5.15161 17.3719 5.44413 17.2507 5.74914 17.2507H28.2743L19.8861 8.86401C19.6703 8.64821 19.5491 8.35553 19.5491 8.05035C19.5491 7.74516 19.6703 7.45248 19.8861 7.23669C20.1019 7.02089 20.3946 6.89966 20.6998 6.89966C21.005 6.89966 21.2976 7.02089 21.5134 7.23669L31.8639 17.5871C31.9708 17.6939 32.0556 17.8208 32.1135 17.9604C32.1714 18.1 32.2012 18.2497 32.2012 18.4008C32.2012 18.5519 32.1714 18.7016 32.1135 18.8412C32.0556 18.9808 31.9708 19.1076 31.8639 19.2144L21.5134 29.5649C21.4066 29.6718 21.2798 29.7566 21.1402 29.8145C21.0006 29.8724 20.8509 29.9022 20.6998 29.9022C20.5486 29.9022 20.399 29.8724 20.2594 29.8145C20.1198 29.7566 19.9929 29.6718 19.8861 29.5649Z" fill="black"/>
</svg>
