<svg width="31" height="20" viewBox="0 0 31 20" fill="none" xmlns="http://www.w3.org/2000/svg">
<g clip-path="url(#clip0_1160_36)">
<path d="M8.98318 -9.15551e-05C9.82536 -9.15551e-05 10.6675 0.0783392 11.4696 0.235202C12.1514 0.392065 12.793 0.666574 13.3946 1.05873C13.9159 1.45089 14.357 1.96069 14.6378 2.54893C14.9586 3.29403 15.119 4.07834 15.0789 4.86265C15.119 5.7254 14.8784 6.58814 14.4373 7.33324C13.956 8.03912 13.2743 8.58814 12.5123 8.94109C13.5951 9.2156 14.5175 9.88226 15.119 10.745C15.7206 11.6862 16.0013 12.7842 16.0013 13.8823C16.0013 14.7842 15.8409 15.647 15.4398 16.4313C15.0789 17.1372 14.5576 17.7254 13.956 18.2352C13.3144 18.7058 12.5524 19.0587 11.7904 19.2548C10.9884 19.4901 10.1462 19.5685 9.30401 19.5685H0V-0.0393066H8.98318V-9.15551e-05ZM8.42173 7.92148C9.06339 7.96069 9.74515 7.76462 10.2665 7.37246C10.7878 6.94109 11.0686 6.27442 10.9884 5.56853C10.9884 5.17638 10.9082 4.78422 10.7477 4.43128C10.5873 4.15677 10.3868 3.92148 10.1061 3.76461C9.82535 3.60775 9.50453 3.45089 9.1837 3.41167C8.82277 3.33324 8.46183 3.33324 8.1009 3.33324H4.17076V7.92148H8.42173ZM8.66235 16.3136C9.06339 16.3136 9.46442 16.2744 9.82535 16.196C10.1863 16.1176 10.5071 15.9607 10.8279 15.7646C11.1087 15.5685 11.3493 15.294 11.5097 14.9803C11.7102 14.5881 11.7904 14.1568 11.7503 13.7254C11.8305 12.9019 11.5097 12.1176 10.9081 11.5685C10.2665 11.0979 9.50453 10.9019 8.70246 10.9411H4.17076V16.3528H8.66235V16.3136Z" fill="#191919"/>
<path d="M21.9365 16.2353C22.6183 16.8235 23.5006 17.1372 24.3828 17.098C25.1047 17.098 25.7865 16.9019 26.3479 16.5098C26.8292 16.196 27.15 15.7647 27.3505 15.2549H30.6791C30.3182 16.7058 29.4359 18 28.2328 18.9019C27.0698 19.6862 25.6662 20.0392 24.2224 20C23.2198 20 22.2173 19.8431 21.2548 19.4509C20.4126 19.098 19.6506 18.5882 19.0491 17.9215C18.4475 17.2157 17.9663 16.4313 17.6455 15.5686C17.2845 14.5882 17.1241 13.5686 17.1642 12.549C17.1642 11.5294 17.3246 10.549 17.6856 9.56859C18.648 6.8235 21.2949 4.98036 24.2625 5.01957C25.3453 4.98036 26.388 5.25487 27.3505 5.72546C28.1927 6.19604 28.9546 6.8235 29.5161 7.60781C30.0775 8.43134 30.5187 9.3333 30.7192 10.3137C30.9598 11.3333 31.04 12.4313 30.9999 13.4902H21.0543C20.9339 14.4706 21.2548 15.4509 21.9365 16.2353ZM26.2677 8.74507C25.7063 8.19605 24.9443 7.92154 24.1422 7.96075C23.6209 7.96075 23.0995 8.03918 22.6584 8.27448C22.2975 8.47055 21.9766 8.74506 21.6959 9.05879C21.4553 9.37251 21.2949 9.68624 21.1746 10.0784C21.0944 10.3921 21.0142 10.7059 21.0142 11.0196H27.1901C27.1099 10.196 26.7891 9.41173 26.2677 8.74507Z" fill="#191919"/>
<path d="M27.9128 1.29395H20.2129V3.21551H27.9128V1.29395Z" fill="#191919"/>
</g>
<defs>
<clipPath id="clip0_1160_36">
<rect width="31" height="20" fill="white"/>
</clipPath>
</defs>
</svg>
