<svg width="48" height="48" viewBox="0 0 48 48" fill="none" xmlns="http://www.w3.org/2000/svg">
<path d="M19 42H29V32H19V42ZM32 42H35.5C37.2239 42 38.8772 41.3152 40.0962 40.0962C41.3152 38.8772 42 37.2239 42 35.5V32H32V42ZM42 29V19H32V29H42ZM42 16V12.5C42 10.7761 41.3152 9.12279 40.0962 7.90381C38.8772 6.68482 37.2239 6 35.5 6H32V16H42ZM29 6H19V16H29V6ZM6 19V29H16V19H6ZM6 32V35.5C6 37.2239 6.68482 38.8772 7.90381 40.0962C9.12279 41.3152 10.7761 42 12.5 42H16V32H6ZM29 19V29H19V19H29Z" fill="white"/>
</svg>
