<svg width="48" height="48" viewBox="0 0 48 48" fill="none" xmlns="http://www.w3.org/2000/svg">
<path d="M45 3V45H3V3H45ZM6 6V30H9.51562L12.0703 27.4453C12.3672 27.1484 12.7187 27 13.125 27C13.5313 27 13.8828 27.1484 14.1797 27.4453L18.3281 31.5703L24.0469 9.375C24.125 9.04688 24.2969 8.78125 24.5625 8.57812C24.8281 8.375 25.1406 8.26563 25.5 8.25C25.8594 8.25 26.1719 8.35156 26.4375 8.55469C26.7031 8.75781 26.875 9.03906 26.9531 9.39844L29.3438 19.1719H33C33.3438 19.1719 33.6484 19.2734 33.9141 19.4766C34.1797 19.6797 34.3594 19.9531 34.4531 20.2969L36.1406 27H42V6H6ZM42 42V30H34.9688C34.6094 30 34.2969 29.8984 34.0312 29.6953C33.7656 29.4922 33.5937 29.2109 33.5156 28.8516L31.8281 22.1719H28.1719C27.8125 22.1719 27.5 22.0703 27.2344 21.8672C26.9688 21.6641 26.7969 21.3828 26.7188 21.0234L25.4531 15.9141L20.5781 34.875C20.5 35.2031 20.3281 35.4687 20.0625 35.6719C19.7969 35.875 19.4844 35.9844 19.125 36C18.7187 36 18.3672 35.8516 18.0703 35.5547L13.125 30.6094L11.1797 32.5547C10.8828 32.8516 10.5313 33 10.125 33H6V42H42Z" fill="white"/>
</svg>
