<svg width="42" height="42" viewBox="0 0 48 48" fill="white" xmlns="http://www.w3.org/2000/svg">
<g clip-path="url(#clip0_1175_24)">
<path fill-rule="evenodd" clip-rule="evenodd" d="M6.85782 20.5714C6.85782 16.9342 8.30271 13.4459 10.8746 10.874C13.4466 8.30204 16.9348 6.85714 20.5721 6.85714C24.2094 6.85714 27.6976 8.30204 30.2696 10.874C32.8415 13.4459 34.2864 16.9342 34.2864 20.5714C34.2864 24.2087 32.8415 27.697 30.2696 30.2689C27.6976 32.8408 24.2094 34.2857 20.5721 34.2857C16.9348 34.2857 13.4466 32.8408 10.8746 30.2689C8.30271 27.697 6.85782 24.2087 6.85782 20.5714ZM20.5721 3.89011e-07C17.3345 -0.000412765 14.1425 0.763346 11.2558 2.22916C8.36903 3.69497 5.86901 5.82145 3.95905 8.43564C2.04909 11.0498 0.783116 14.0779 0.264102 17.2736C-0.254912 20.4694 -0.012316 23.7425 0.972161 26.8267C1.95664 29.911 3.6552 32.7194 5.92969 35.0234C8.20418 37.3275 10.9904 39.0621 14.0617 40.0864C17.133 41.1106 20.4027 41.3954 23.6049 40.9177C26.807 40.44 29.8512 39.2132 32.4898 37.3371L42.1481 46.9954C42.7947 47.62 43.6608 47.9656 44.5598 47.9577C45.4587 47.9499 46.3187 47.5893 46.9543 46.9537C47.59 46.318 47.9506 45.458 47.9584 44.5591C47.9662 43.6601 47.6206 42.7941 46.9961 42.1474L37.3412 32.4926C39.5296 29.415 40.8287 25.7943 41.0959 22.0275C41.3632 18.2606 40.5885 14.4928 38.8566 11.137C37.1247 7.78124 34.5025 4.96693 31.2773 3.00248C28.0521 1.03804 24.3484 -0.000733889 20.5721 3.89011e-07Z" fill="white"/>
</g>
<defs>
<clipPath id="clip0_1175_24">
<rect width="48" height="48" fill="white"/>
</clipPath>
</defs>
</svg>
