<svg width="48" height="48" viewBox="0 0 48 48" fill="white" xmlns="http://www.w3.org/2000/svg">
<path d="M6.84 24C6.84 21.52 7.38 19.16 8.32 17L16.52 39.44C13.6169 38.0384 11.1683 35.8458 9.45586 33.1144C7.74344 30.383 6.83673 27.2238 6.84 24ZM35.58 23.14C35.58 24.6 35 26.3 34.28 28.68L32.56 34.4L26.36 16L28.32 15.8C29.26 15.68 29.14 14.32 28.22 14.38C28.22 14.38 25.44 14.6 23.64 14.6L19.12 14.38C18.2 14.32 18.1 15.74 19 15.8L20.82 16L23.5 23.28L19.74 34.54L13.48 16L15.46 15.8C16.38 15.68 16.26 14.32 15.34 14.38C15.34 14.38 12.56 14.6 10.76 14.6L9.66 14.58C12.74 9.92 18 6.84 24 6.84C28.46 6.84 32.54 8.56 35.58 11.34H35.36C33.68 11.34 32.48 12.8 32.48 14.38C32.48 15.8 33.3 17 34.16 18.4C34.82 19.54 35.58 21 35.58 23.14ZM24.3 25.5L29.58 39.94L29.7 40.18C27.92 40.82 26 41.16 24 41.16C22.32 41.16 20.7 40.92 19.16 40.46L24.3 25.5ZM39.06 15.76C40.4428 18.286 41.1652 21.1203 41.16 24C41.16 30.32 37.72 35.86 32.62 38.82L37.86 23.68C38.84 21.24 39.18 19.28 39.18 17.54L39.06 15.76ZM24 4C26.6264 4 29.2272 4.51732 31.6537 5.52241C34.0802 6.5275 36.285 8.00069 38.1421 9.85786C39.9993 11.715 41.4725 13.9198 42.4776 16.3463C43.4827 18.7728 44 21.3736 44 24C44 29.3043 41.8929 34.3914 38.1421 38.1421C34.3914 41.8929 29.3043 44 24 44C21.3736 44 18.7728 43.4827 16.3463 42.4776C13.9198 41.4725 11.715 39.9993 9.85786 38.1421C6.10714 34.3914 4 29.3043 4 24C4 18.6957 6.10714 13.6086 9.85786 9.85786C13.6086 6.10714 18.6957 4 24 4ZM24 43.08C34.52 43.08 43.08 34.52 43.08 24C43.08 13.48 34.52 4.92 24 4.92C13.48 4.92 4.92 13.48 4.92 24C4.92 34.52 13.48 43.08 24 43.08Z" fill="white"/>
</svg>
