<svg width="35" height="25" viewBox="0 0 35 25" fill="none" xmlns="http://www.w3.org/2000/svg">
<path d="M33.4971 3.84665C33.1037 2.33246 31.9445 1.14011 30.4725 0.735439C27.8045 1.4965e-06 17.106 1.11759e-06 17.106 1.11759e-06C17.106 1.11759e-06 6.40763 1.4965e-06 3.73959 0.735439C2.26764 1.14011 1.10831 2.33246 0.714902 3.84665C0 6.59099 0 12.3169 0 12.3169C0 12.3169 0 18.0427 0.714902 20.7873C1.10831 22.3013 2.26764 23.4937 3.73959 23.8985C6.40763 24.6338 17.106 24.6338 17.106 24.6338C17.106 24.6338 27.8045 24.6338 30.4725 23.8985C31.9445 23.4937 33.1037 22.3013 33.4971 20.7873C34.2121 18.0427 34.2121 12.3169 34.2121 12.3169C34.2121 12.3169 34.2121 6.59099 33.4971 3.84665Z" fill="#252323"/>
<path d="M13.6074 17.5156L22.5492 12.3172L13.6074 7.11828V17.5156Z" fill="white"/>
</svg>
